<svg width="10883" height="7832" fill="none" xmlns="http://www.w3.org/2000/svg"><path d="M7582.31.001 5439.63 2962.45 3300.56.001H.693V2327.78h817.405v3176.13H.693v2327.66H4208.46V5503.91h-871.84V3681.1l2091.73 2876.25 2117.9-2878.69v1825.25h-871.84v2327.66h4207.79V5503.91h-817.4V2327.78h817.4V.001H7582.31Z" fill="#00274C"/><path d="M10706.8 2152.01V174.718H7671.65L5439.28 3261.06 3210.87 174.718H175.76V2152.01h817.406v3526.62H175.76v1977.29h3857.41V5678.63H3161.2v-2536.7l2267.73 3118.21 2292.39-3115.76v2534.25h-871.85v1977.29h3857.33V5678.63h-817.44V2152.01h817.44Z" fill="#F5C300"/></svg>